<?xml version="1.0" encoding="utf-8"?>
<!-- Generator: Adobe Illustrator 24.3.0, SVG Export Plug-In . SVG Version: 6.00 Build 0)  -->
<svg version="1.1" xmlns="http://www.w3.org/2000/svg" xmlns:xlink="http://www.w3.org/1999/xlink" x="0px" y="0px"
	 viewBox="0 0 500 379" style="enable-background:new 0 0 500 379;" xml:space="preserve">
<style type="text/css">
	.st0{display:none;}
	.st1{display:inline;}
	.st2{fill:#F2F2F2;}
	.st3{opacity:0.1;}
	.st4{fill:#ED562B;}
	.st5{fill:#4C4E4F;}
	.st6{fill:#FED74B;}
	.st7{opacity:0.15;}
	.st8{fill:#0C2647;}
	.st9{fill:#72C9B9;}
	.st10{fill:#EF8F8F;}
	.st11{fill:#60BAA8;}
	.st12{fill:#F6A4A4;}
	.st13{fill:#838BC0;}
	.st14{opacity:0.2;}
	.st15{fill:#ED7898;}
	.st16{fill:#FFFFFF;}
</style>
<g id="BACKGROUND" class="st0">
	<g class="st1">
		<g>
			<rect y="-59" class="st2" width="500" height="500"/>
		</g>
		<g class="st3">
			<path class="st4" d="M205.88,27.5c64.92,0,121.09,37.5,148.02,92.01c14.9,30.16,37.18,56.14,65.24,74.68
				c24.1,15.92,39.99,43.26,39.99,74.3c0,49.15-39.85,89-89,89c-8.45,0-16.63-1.18-24.37-3.38c-32.81-9.32-67.5-9.4-100.63-1.32
				c-12.58,3.07-25.72,4.7-39.25,4.7c-91.5,0-165.6-74.48-165-166.12C41.48,100.51,115,27.5,205.88,27.5z"/>
		</g>
	</g>
</g>
<g id="OBJECTS">
	<g>
		<g>
			<path class="st5" d="M239.61,357.21l-24.45-64.93c-5.87-15.6-21.02-26.08-37.69-26.08c-16.67,0-31.82,10.48-37.69,26.08
				l-24.45,64.93l-2.34-0.88l24.45-64.93c3.08-8.18,8.51-15.13,15.69-20.1c7.19-4.97,15.6-7.6,24.34-7.6s17.16,2.63,24.34,7.6
				c7.19,4.97,12.61,11.92,15.69,20.1l24.45,64.93L239.61,357.21z"/>
		</g>
		<g>
			<g>
				
					<rect x="125.17" y="286.15" transform="matrix(0.7959 -0.6054 0.6054 0.7959 -141.3208 155.547)" class="st5" width="69.79" height="2.5"/>
			</g>
			<g>
				
					<rect x="193.62" y="252.5" transform="matrix(0.6054 -0.7959 0.7959 0.6054 -151.8525 268.5023)" class="st5" width="2.5" height="69.79"/>
			</g>
		</g>
	</g>
	<g>
		<path class="st6" d="M230.3,259.02c-7.41,6.9-17.84,7.73-27.41,8.68c-11.32,1.13-22.72,1.24-34.07,0.43
			c-1.39-0.1-2.79-0.19-4.2-0.29c-10.08-0.67-20.57-1.54-29.4-6.72c-11.02-6.47-14.8-18.6-16.16-30.72
			c-1.14-10.16-1.38-20.68-1.22-30.86c0.17-10.89,1.75-21.98,5.41-32.29c1.47-4.16,3.28-8.21,5.47-12.05
			c6.64-11.68,16.38-24.42,31.38-22.94c6.6,0.65,12.89,4.05,17.31,9.76c5.97,7.71,8.79,17.06,11.64,26.22
			c3.05,9.76,7.91,18.95,14.25,26.98c8.3,10.51,20.04,17.71,27.61,28.86C238.06,234.59,240.53,249.49,230.3,259.02z"/>
	</g>
	<g class="st7">
		<path class="st8" d="M230.3,259.02c-7.41,6.9-17.84,7.73-27.41,8.68c-11.32,1.13-22.72,1.24-34.07,0.43
			c-1.39-0.1-2.79-0.19-4.2-0.29c-4.1-6.13-6.22-14.6-12.23-19.1c-4.37-3.28-10.46-4.14-14-8.3c-7.34-8.64,1.91-23.52-4.64-32.77
			c-3.11-4.39-9.44-6.81-10.13-12.15c-0.61-4.73,3.74-8.66,4.58-13.35c0.7-3.86-1.04-7.71-2.92-11.14c-0.68-1.24-1.4-2.5-2.04-3.78
			c1.47-4.16,3.28-8.21,5.47-12.05c6.64-11.68,16.38-24.42,31.38-22.94c6.6,0.65,12.89,4.05,17.31,9.76
			c5.97,7.71,8.79,17.06,11.64,26.22c3.05,9.76,7.91,18.95,14.25,26.98c8.3,10.51,20.04,17.71,27.61,28.86
			C238.06,234.59,240.53,249.49,230.3,259.02z"/>
	</g>
	<g>
		<g>
			<path class="st8" d="M170.67,92.26h-1.75v-10.4c0-11.13,9.06-20.19,20.19-20.19c11.13,0,20.19,9.06,20.19,20.19h-1.75
				c0-10.17-8.27-18.44-18.44-18.44c-10.17,0-18.44,8.27-18.44,18.44V92.26z"/>
		</g>
		<g>
			<path class="st9" d="M208.38,97.45L208.38,97.45c-3.14,0-5.71-2.57-5.71-5.71v-5.26c0-3.14,2.57-5.71,5.71-5.71h0
				c3.14,0,5.71,2.57,5.71,5.71v5.26C214.09,94.88,211.52,97.45,208.38,97.45z"/>
		</g>
		<g>
			<path class="st10" d="M246.36,137.31c1.47,0.8,3.07,1.55,4.75,2.13c1.01,0.35,1.63,1.37,1.48,2.43
				c-3.1,22.24-13.69,40.56-31.52,50.81c-7.21,4.15-15.03,5.87-22.9,2.67c-8.23-3.34-13.6-10.83-16.24-19.04
				c-2.94-9.14-5.33-19.45-4.04-28.97c0.72-5.29,1.76-10.09,6.1-12.99c3.22-2.16,7.3-3.03,11.1-2.04
				c9.45,2.46,10.29,12.43,14.12,19.71c2.51,4.77,7.39,6.91,12.34,5.54c4.51-1.24,17.69-14.94,22.09-19.79
				C244.33,136.99,245.45,136.81,246.36,137.31z"/>
		</g>
		<g>
			<path class="st11" d="M211.39,196.75c10.31,7.03,21.29,13.72,32.8,18.55c10.03,4.2,20.69,7.62,29.77,13.76
				c9.37,6.35,17.04,15.55,21.07,26.17c4.75,12.52,4.07,27.43-1.81,39.41c-5.88,11.99-16.84,20.82-28.98,23.36L211.39,196.75z"/>
		</g>
		<g>
			<path class="st4" d="M248.87,335.62c-0.54-0.63-1.53-0.56-1.97,0.14c-0.83,1.33-1.6,2.7-2.09,4.18c-0.67,2-0.8,4.27,0.09,6.18
				c0.87,1.86,2.58,3.16,4.26,4.33c3.7,2.58,7.59,4.89,11.61,6.91c1.04,0.52,2.16-0.58,1.65-1.63
				C259.08,348.86,253.66,341.26,248.87,335.62z"/>
		</g>
		<g>
			<path class="st4" d="M256.72,312.7c-0.15-0.81-1.05-1.25-1.78-0.86c-1.38,0.74-2.73,1.54-3.9,2.58c-1.58,1.4-2.83,3.3-3,5.41
				c-0.17,2.04,0.66,4.03,1.54,5.88c1.92,4.08,4.14,8.02,6.62,11.78c0.64,0.98,2.16,0.57,2.24-0.59
				C258.96,329.27,258.06,319.98,256.72,312.7z"/>
		</g>
		<g>
			<path class="st6" d="M188.04,111.43c-0.01,0.3-0.02,0.6-0.04,0.89c0,0.12-0.01,0.23-0.01,0.35c-0.01,0.13-0.01,0.25-0.01,0.38
				c-0.03,1.47-0.09,4.4-0.09,4.4c0,0.17-0.01,0.5-0.01,0.95c0,0.38,0,0.85,0,1.39c0,1.57,0.01,3.74,0.02,6.15
				c0.03,7.64,0.09,17.6,0.09,17.6s-3.57,1.3-5.35,2.31c-1.78,1.01-3.74,1.28-5.67,1.27c-5.71-0.04-11.43-2.51-16.24-7
				c-0.33-0.3-0.66-0.63-0.85-1.11c-0.41-0.99,0.23-3.24,0.23-3.24l3.53-18.34l0.37-1.95l3.81-18.66c0,0,3.53-0.13,7.17,0.21
				c2.43,0.23,4.8,0.65,6,1.38c0.09,0.06,0.18,0.12,0.26,0.18c0.97,0.76,1.87,1.65,2.73,2.64c0,0,0,0.01,0.01,0.01
				c0.15,0.18,0.3,0.36,0.45,0.54c0.77,0.94,1.5,1.94,2.22,2.95c0.17,0.23,0.32,0.45,0.47,0.65c0.52,0.71,0.89,1.29,0.97,2.44
				C188.16,108.99,188.1,110.22,188.04,111.43z"/>
		</g>
		<g class="st7">
			<path class="st8" d="M188.04,111.43c-0.01,0.3-0.02,0.6-0.04,0.89c0,0.12-0.01,0.23-0.01,0.35c-0.01,0.13-0.01,0.25-0.01,0.38
				c-0.03,1.47-0.09,4.4-0.09,4.4c0,0.17-0.01,0.5-0.01,0.95c-1.46-1.26-2.79-2.67-3.96-4.21c-3.01-3.96-4.94-8.73-5.52-13.67
				c1.88,0.21,3.77,0.36,5.58,0.7c0,0,0,0.01,0.01,0.01c0.15,0.18,0.3,0.36,0.45,0.54c0.77,0.94,1.5,1.94,2.22,2.95
				c0.17,0.23,0.32,0.45,0.47,0.65c0.52,0.71,0.89,1.29,0.97,2.44C188.16,108.99,188.1,110.22,188.04,111.43z"/>
		</g>
		<g>
			<path class="st6" d="M178.12,101.83c0.69,0.89,1.4,1.78,2.14,2.64c1.98,2.34,4.15,4.51,6.71,6.17c3.51,2.28,7.88,3.51,11.94,2.49
				c0.42-0.11,0.82-0.23,1.22-0.38c4.89-1.83,8.14-6.82,9.22-11.78c0.03-0.14,0.06-0.28,0.09-0.42c0.57-2.84,0.68-5.97,0.38-9.12
				c-0.22-2.25-0.64-4.5-1.26-6.66c-0.84-2.92-2.03-5.67-3.53-8.01c-4.98-7.74-15.38-11.06-23.22-6.22
				c-6.95,4.3-10.61,12.07-12.74,20.31c-1.41,5.46-2.14,11.12-2.72,16.12C165.22,116.69,178.12,101.83,178.12,101.83z"/>
		</g>
		<g>
			<path class="st4" d="M187.47,95.01c-0.09,2.43-2.14,4.33-4.57,4.24c-2.43-0.09-4.33-2.14-4.24-4.57
				c0.09-2.43,2.14-4.33,4.57-4.24C185.67,90.53,187.57,92.58,187.47,95.01z"/>
		</g>
		<g>
			<path class="st4" d="M209.43,100.55c-0.23,0.02-0.47,0.03-0.71,0.03c-2.55-0.1-4.54-2.24-4.44-4.79c0.1-2.55,2.24-4.54,4.79-4.44
				c0.25,0.01,0.5,0.04,0.74,0.09C210.12,94.58,210,97.71,209.43,100.55z"/>
		</g>
		<g>
			<path class="st8" d="M194.52,93.56c-0.05,0-0.09,0-0.14,0l0.08-1.75c0.45,0.02,0.85-0.18,1.1-0.55c0.25-0.37,0.29-0.83,0.1-1.24
				c-0.52-1.14-1.02-2.44-1.15-4.19l1.75-0.13c0.1,1.39,0.47,2.44,0.99,3.59c0.44,0.97,0.35,2.07-0.25,2.94
				C196.45,93.07,195.53,93.56,194.52,93.56z"/>
		</g>
		<g>
			<path class="st8" d="M191.18,86.88c-0.02,0.58-0.51,1.03-1.09,1.01c-0.58-0.02-1.03-0.51-1.01-1.09
				c0.02-0.58,0.51-1.03,1.09-1.01C190.75,85.81,191.2,86.3,191.18,86.88z"/>
		</g>
		<g>
			
				<ellipse transform="matrix(0.9825 -0.1864 0.1864 0.9825 -12.3929 38.9068)" class="st8" cx="200.69" cy="85.35" rx="1.05" ry="1.05"/>
		</g>
		<g>
			<path class="st4" d="M199.53,95.06c-2.36,0.84-4.99,0.93-7.41,0.25c-0.45-0.13-0.91,0.21-0.91,0.69c0,0.63,0.06,1.26,0.26,1.84
				c0.46,1.31,1.61,2.51,2.98,2.94c1.45,0.45,3.11,0.29,4.27-0.66c1.38-1.13,1.78-2.67,1.76-4.4
				C200.48,95.23,199.99,94.9,199.53,95.06z"/>
		</g>
		<g>
			<path class="st12" d="M220.46,203.71c-21.65,10.19-44.93,16.92-68.68,19.82c-0.26-0.46-0.51-0.93-0.76-1.39
				c-9.45-17.76-13.94-38.15-12.77-58.24c0.76-12.92,4.11-26.28,12.81-35.86s23.76-14.16,35.12-7.97
				c6.34,3.46,10.76,9.69,13.71,16.29c2.95,6.6,4.62,13.68,6.88,20.54C211.85,172.31,210.98,190.89,220.46,203.71z"/>
		</g>
		<g>
			<path class="st9" d="M278.88,316.08c-3.56,9.2-9.38,17.39-17.12,23.52c-0.8,0.64-1.63,1.25-2.47,1.85
				c-0.67,0.48-1.55,0.54-2.29,0.17c-3.43-1.73-6.9-3.63-10.34-5.4c-1.32-0.68-1.63-2.43-0.62-3.52c1.99-2.15,3.68-4.56,5.04-7.15
				c5.82-11.01,5.83-25.21-0.91-35.78c-5.45-8.54-14.35-14.33-23.61-18.45c-9.26-4.12-19.09-6.83-28.41-10.8
				c-17.48-7.43-34.5-17.54-44.41-33.64c-0.28-0.44-0.54-0.89-0.81-1.34c-0.39-0.67-0.76-1.34-1.13-2.01
				c23.75-2.9,47.03-9.63,68.68-19.82c0.57,0.78,1.18,1.54,1.84,2.27c2.38,2.67,4.87,5.23,7.46,7.68
				C240.33,223.63,302.39,255.28,278.88,316.08z"/>
		</g>
		<g>
			<path class="st6" d="M206.32,164.71c1.74-3.55,4.31-6.68,7.43-9.11c0.45-0.35,1.1,0.05,0.99,0.61c-0.13,0.69-0.37,1.09-0.92,1.88
				c1.89-1.95,3.34-3.2,7.53-5.36c0.78-0.4,1.73-0.33,2.4,0.22c0.98,0.81,0.5,1.97-0.02,2.87c-3.45,6.01-8.75,10.95-14.99,13.96
				L206.32,164.71z"/>
		</g>
		<g>
			<path class="st10" d="M210.2,171.04c-3.01,3.54-6.21,6.77-9.57,9.65c-12.82,11.01-27.96,16.98-44.21,16.26
				c-8.29-0.37-15.8-3.12-20.72-10.03c-5.14-7.22-5.65-16.41-3.48-24.74c2.41-9.26,5.92-19.21,12.09-26.53
				c0.01-0.01,0.01-0.02,0.02-0.03c3.44-4.07,8.21-6.71,13.42-6.84c3.87-0.1,7.78,1.36,10.45,4.23c6.64,7.14,0.68,15.14,0.01,23.32
				c-0.44,5.36,2.52,9.78,7.42,11.28c4.45,1.37,22.83-3.08,29.18-4.82c1-0.28,2.07,0.16,2.57,1.07c0.81,1.46,1.76,2.94,2.86,4.34
				C210.91,169.03,210.89,170.22,210.2,171.04z"/>
		</g>
		<g>
			<path class="st4" d="M170.56,89.95c8.48-1.57,19.11-7.11,23.74-13.56c3.48,3.21,7.8,5.4,12.4,5.6c1.53,0.06,2.64-1.43,2.19-2.89
				c-1.81-5.86-7.29-10.75-13.23-12.27c-6.85-1.75-14.39,0.48-19.74,5.09c-4.73,4.08-7.41,8.89-7.96,15.63
				C167.83,89.03,169.12,90.22,170.56,89.95z"/>
		</g>
		<g>
			<circle class="st4" cx="175.34" cy="69.32" r="8.99"/>
		</g>
		<g>
			<path class="st8" d="M191.78,112.81h-5.9c-9.35,0-16.96-7.61-16.96-16.96h1.75c0,8.39,6.82,15.21,15.21,15.21h5.9V112.81z"/>
		</g>
		<g>
			<path class="st8" d="M170.67,92.26h-1.75v-10.4c0-11.13,9.06-20.19,20.19-20.19v1.75c-10.17,0-18.44,8.27-18.44,18.44V92.26z"/>
		</g>
		<g>
			<path class="st9" d="M194.08,111.54c0.17,1.19-0.65,2.29-1.83,2.46c-1.19,0.17-2.29-0.65-2.46-1.83
				c-0.17-1.19,0.65-2.29,1.83-2.46C192.81,109.53,193.91,110.35,194.08,111.54z"/>
		</g>
		<g>
			<path class="st9" d="M169.92,98.21L169.92,98.21c-3.14,0-5.71-2.57-5.71-5.71v-5.26c0-3.14,2.57-5.71,5.71-5.71h0
				c3.14,0,5.71,2.57,5.71,5.71v5.26C175.63,95.64,173.06,98.21,169.92,98.21z"/>
		</g>
		<g class="st7">
			<path class="st8" d="M200.63,180.68c-12.82,11.01-27.96,16.98-44.21,16.26c-8.29-0.37-15.8-3.12-20.72-10.03
				c-5.14-7.22-5.65-16.41-3.48-24.74c2.41-9.26,5.92-19.21,12.09-26.53c1.91,1.44,3.32,3.81,3.66,6.22
				c0.6,4.31-3.3,8.52-4.72,12.63c-2.13,6.18,3.18,11.25,2.5,17.75c-0.34,3.21-1.6,5.21-2.25,8.25c-0.53,2.5,0.79,5.56,3.25,6.5
				c7.24,2.77,13.29-6.85,20.87-5.22c3.86,0.82,6.74,4.71,10.69,4.77c4.69,0.07,7.57-5.1,11.77-7.19c3.24-1.61,7.39-1.19,10.24,1.05
				C200.42,180.5,200.53,180.59,200.63,180.68z"/>
		</g>
		<g class="st7">
			<path class="st8" d="M271.07,309.99c-0.4,6.36-4.71,12.32-10.63,14.69c-2.96,1.18-6.24,1.44-9.37,0.87
				c5.82-11.01,5.83-25.21-0.91-35.78c-5.45-8.54-14.35-14.33-23.61-18.45c-9.26-4.12-19.09-6.83-28.41-10.8
				c-17.48-7.43-34.5-17.54-44.41-33.64c7.05-4.01,16.69-3.33,22.87,2.02c5.57,4.82,8.78,12.94,15.89,14.87
				c4.59,1.24,9.7-0.56,14.13,1.16c5.81,2.25,7.9,9.32,12.31,13.73c6.38,6.38,18.21,3.65,26.32,7.6c8.84,4.29,7.93,15.24,13.25,23.5
				C262.4,295.79,271.52,302.82,271.07,309.99z"/>
		</g>
	</g>
	<g>
		<path class="st5" d="M78.4,353.1V197.32c0-0.22,0.18-0.4,0.4-0.4h6.55c0.22,0,0.4,0.18,0.4,0.4V353.1c0,2.03-1.64,3.67-3.67,3.67
			l0,0C80.05,356.77,78.4,355.13,78.4,353.1z"/>
	</g>
	<g>
		<path class="st5" d="M359.03,353.1V197.32c0-0.22,0.18-0.4,0.4-0.4h6.55c0.22,0,0.4,0.18,0.4,0.4V353.1
			c0,2.03-1.64,3.67-3.67,3.67l0,0C360.67,356.77,359.03,355.13,359.03,353.1z"/>
	</g>
	<g>
		<path class="st13" d="M375.85,209.72H68.94c-3.53,0-6.4-2.86-6.4-6.4l0,0c0-3.53,2.86-6.4,6.4-6.4h306.9c3.53,0,6.4,2.86,6.4,6.4
			l0,0C382.25,206.86,379.38,209.72,375.85,209.72z"/>
	</g>
	<g>
		<g>
			<g>
				<path class="st12" d="M389.06,308c-2.31-8.69-6.97-16.74-13.37-23.06c-5.05-4.99-11.34-9.18-14.13-15.71
					c-0.9-2.1-1.32-4.72,0.09-6.51c1.19-1.52,3.42-2.22,5.26-1.49c9.41,3.68,24.41,27.5,25.1,42.87
					C390.77,305.69,390.31,306.41,389.06,308z"/>
			</g>
			<g>
				<g>
					<path class="st9" d="M407.9,305.16c1.39-23.69,21.51-89.94,21.51-89.94c0.36-1.87-1.63-3.31-3.29-2.39
						c-1.44,0.8-2.77,1.78-3.97,2.89c-1.59,1.48-4.14,0.08-3.74-2.05c2.34-12.44,5.83-24.49,9.99-36.51c0.62-1.8-1.12-3.5-2.9-2.85
						c-2.51,0.91-4.86,2.2-6.99,3.82c-1.45,1.1-3.54,0.13-3.61-1.68c-0.36-9.1-2.02-18.24-5.52-26.58
						c-0.85-2.01-3.78-1.76-4.26,0.37c-1.82,8.13-2.6,16.74-2.99,25.11c-0.09,1.94-2.42,2.83-3.82,1.48
						c-1.49-1.44-3.21-2.59-5.12-3.52c-1.84-0.89-3.83,0.95-3.07,2.85c4.75,11.86,7.47,24.83,8.08,37.62
						c0.09,1.95-2.17,3.06-3.68,1.83c-0.8-0.65-1.67-1.22-2.58-1.73c-1.75-0.97-3.8,0.68-3.23,2.61
						c8.21,27.99,13.03,59.02,9.71,87.84"/>
				</g>
				<g>
					<path class="st8" d="M403.46,306.87l-1.73-0.29c6.82-40.94,8.74-82.69,5.71-124.09l1.75-0.13
						C412.22,223.9,410.3,265.79,403.46,306.87z"/>
				</g>
			</g>
			<g>
				<g>
					<path class="st6" d="M347.04,209.86c2.99,16.82,15.45,30.06,24.56,44.51c8.7,13.79,14.57,29.36,17.22,45.46
						c0.86,5.25,1.38,10.56,1.55,15.88c3.8-3.05,5.27-4.48,9.07-7.54c5.61-30.27-8.79-79.61-25.33-103.29
						c-3.35-4.8-6.79-8.54-10.17-10.86c-3.94-2.7-9.54-2.27-13.15,0.64C346.53,198.09,346.08,204.46,347.04,209.86z"/>
				</g>
				<g class="st7">
					<path class="st8" d="M373.66,211.65c0.86,6.15,4.35,11.54,7.35,16.97c3,5.43,5.65,11.54,4.62,17.65
						c-0.75,4.43-3.4,8.49-3.45,12.99c-0.09,7.62,7.07,13.34,9.1,20.68c1.67,6.02-0.27,12.39-2.03,18.39
						c-0.14,0.49-0.29,0.99-0.42,1.49c0.86,5.25,1.38,10.56,1.55,15.88c3.8-3.05,5.27-4.48,9.07-7.54
						c5.61-30.27-8.79-79.61-25.33-103.29C373.51,207.07,373.35,209.43,373.66,211.65z"/>
				</g>
				<g>
					<path class="st8" d="M394.44,302.03c-1.04-33.72-13.24-66.78-34.36-93.1l1.36-1.1c21.35,26.61,33.69,60.04,34.75,94.14
						L394.44,302.03z"/>
				</g>
			</g>
		</g>
		<g>
			<g>
				<path class="st4" d="M368.8,288.75c-1.38,0-2.5,1.12-2.5,2.5v36.45c0,16.05,13.02,29.07,29.07,29.07
					c8.62,0,16.36-3.75,21.68-9.7c4.6-5.14,7.4-11.93,7.4-19.37v-36.45c0-1.38-1.12-2.5-2.5-2.5H368.8z"/>
			</g>
			<g class="st7">
				<path class="st8" d="M366.3,294.81v32.89c0,16.05,13.02,29.07,29.07,29.07c8.62,0,16.36-3.75,21.68-9.7
					c-3.9-4.91-11.25-6.45-14.39-11.89c-2.31-4.01-1.84-9.44-5.04-12.79c-4.12-4.31-11.99-2.71-16.19-6.95
					c-3.6-3.62-2.79-9.68-4.99-14.28C374.62,297.36,370.48,295.03,366.3,294.81z"/>
			</g>
		</g>
	</g>
	<g>
		<g class="st14">
			<path class="st15" d="M110.88,123.84c-1.59-0.51-2.65-1.98-2.64-3.65c0-0.01,0-0.02,0-0.03c0-7.4-6.05-13.38-13.47-13.27
				c-6.74,0.1-12.72,5.87-13.05,12.6c-0.17,3.42,0.96,6.57,2.94,9c1.83,2.26,2.42,5.29,1.54,8.06c-0.01,0.03-0.02,0.06-0.03,0.09
				c-0.65,2.1-2.04,3.92-3.93,5.04c-3.32,1.97-5.52,5.64-5.37,9.82c0.2,5.65,4.76,10.27,10.4,10.55c2.46,0.12,14.78,0.08,18.05,0.01
				c10.27-0.23,18.71-8.49,19.12-18.76C124.8,134.23,119,126.46,110.88,123.84z"/>
		</g>
		<g>
			<path class="st9" d="M108.83,161.54v6.5c0,5-0.56,9.97-1.67,14.81c-0.94,4.1-2.26,8.11-3.96,11.97c-0.31,0.71-0.63,1.4-0.96,2.1
				H91.57c-4.34-9.01-6.6-18.88-6.6-28.88v-6.5H108.83z"/>
		</g>
		<g class="st7">
			<path class="st8" d="M103.2,194.82c-0.31,0.71-0.63,1.4-0.96,2.1H91.57c-4.34-9.01-6.6-18.88-6.6-28.88v-3.71
				c0.74,0.03,1.48,0.19,2.16,0.48c2.08,0.88,3.62,2.94,3.87,5.19c0.22,2.02-0.52,4.06-0.24,6.07c0.52,3.68,4.11,5.96,6.76,8.55
				C100.35,187.38,102.33,190.98,103.2,194.82z"/>
		</g>
	</g>
	<g>
		<g>
			<path class="st6" d="M272.29,48.75c0,13.39-10.86,24.25-24.25,24.25c-7.24,0-13.74-3.17-18.18-8.21
				c-3.78-4.28-6.07-9.89-6.07-16.04c0-13.39,10.86-24.25,24.25-24.25c9.33,0,17.43,5.27,21.48,12.99
				C271.29,40.86,272.29,44.69,272.29,48.75z"/>
		</g>
		<g>
			<polygon class="st8" points="242.18,58.16 240.76,57.13 247.1,48.38 247.1,35.19 248.85,35.19 248.85,48.95 			"/>
		</g>
		<g class="st7">
			<path class="st8" d="M269.53,37.49c-1.92,1.78-3.76,3.66-6.18,4.59c-7.62,2.93-16.58-4.98-23.92-1.38
				c-3.74,1.83-5.6,6.12-6.4,10.21c-0.79,4.09-0.85,8.37-2.38,12.24c-0.22,0.56-0.49,1.1-0.79,1.64c-3.78-4.28-6.07-9.89-6.07-16.04
				c0-13.39,10.86-24.25,24.25-24.25C257.38,24.5,265.47,29.77,269.53,37.49z"/>
		</g>
	</g>
	<g>
		<g>
			<path class="st13" d="M347.73,103.75v60.84c0,2.48-2.01,4.49-4.49,4.49h-93.62c-2.48,0-4.49-2.01-4.49-4.49v-60.84
				c0-2.48,2.01-4.49,4.49-4.49h93.62c1.03,0,1.98,0.35,2.74,0.93C347.04,101.01,347.73,102.3,347.73,103.75z"/>
		</g>
		<g>
			<path class="st13" d="M282.17,169.01l4.46,6.3c5.1,7.19,2.99,17.2-4.58,21.73l0,0h26.83l0.28-0.16
				c7.63-4.44,9.85-14.43,4.83-21.69l-4.28-6.18H282.17z"/>
		</g>
		<g class="st7">
			<path class="st8" d="M347.73,127.04v37.55c0,2.48-2.01,4.49-4.49,4.49h-93.62c-2.48,0-4.49-2.01-4.49-4.49v-8.56
				c0.9-0.63,1.86-1.15,2.88-1.57c3.7-1.49,8.02-1.39,11.65,0.27c3.05,1.4,5.85,3.9,9.21,3.78c4.67-0.16,7.76-5.24,12.31-6.31
				c5.92-1.39,11.25,4.39,17.32,4.75c8.51,0.5,9.83-7.81,18.01-10.21c4.25-1.25,12.07,0.38,15.23-1.14
				c3.92-1.89,5.06-6.8,7.17-10.61C340.86,131.46,344.04,128.7,347.73,127.04z"/>
		</g>
		<g>
			<circle class="st16" cx="296.43" cy="134.17" r="5.5"/>
		</g>
	</g>
</g>
<g id="DESIGNED_BY_FREEPIK">
</g>
</svg>
